<svg id="Capa_1" enable-background="new 0 0 512 512" height="512" viewBox="0 0 512 512" width="512" xmlns="http://www.w3.org/2000/svg"><g><path d="m110.595 307.73h17.405v-61.19h-17.405c-16.897 0-30.595 13.697-30.595 30.595 0 16.897 13.698 30.595 30.595 30.595z" fill="#66e1f8"/><path d="m216.386 186h79.227v40.54h-79.227z" fill="#7aa9bf"/><path d="m316.967 186h-121.934c-20.696 0-37.473-16.777-37.473-37.473v-40.087c0-54.367 44.073-98.44 98.44-98.44 54.367 0 98.44 44.073 98.44 98.44v40.087c0 20.696-16.777 37.473-37.473 37.473z" fill="#dee9ef"/><path d="m148 226.54h216c11.046 0 20 8.954 20 20v127.46c0 70.692-57.307 128-128 128-70.692 0-128-57.307-128-128v-127.46c0-11.046 8.954-20 20-20z" fill="#dee9ef"/><circle cx="256" cy="99.246" fill="#66e1f8" r="28.832"/><path d="m401.405 307.73h-17.405v-61.19h17.405c16.897 0 30.595 13.698 30.595 30.595 0 16.897-13.698 30.595-30.595 30.595z" fill="#66e1f8"/><circle cx="256" cy="364.27" fill="#6ae6a3" r="83.73"/><g><path d="m472.294 424.177c-1.442-44.301-13.919-87.483-36.345-125.751 3.832-6.194 6.051-13.487 6.051-21.291 0-22.384-18.211-40.595-40.595-40.595h-9.125c-4.128-11.639-15.243-20-28.28-20h-58.387v-20.54h11.354c26.177 0 47.473-21.296 47.473-47.473v-40.087c0-59.794-48.646-108.44-108.44-108.44s-108.44 48.646-108.44 108.44v40.087c0 26.177 21.296 47.473 47.473 47.473h11.354v20.54h-58.387c-13.036 0-24.152 8.361-28.28 20h-9.125c-22.384 0-40.595 18.211-40.595 40.595 0 7.804 2.219 15.097 6.051 21.292-22.426 38.269-34.903 81.446-36.345 125.751-15.862 4.336-27.558 18.866-27.558 36.084 0 5.522 4.478 10 10 10s10-4.478 10-10c0-9.601 7.812-17.411 17.412-17.411s17.411 7.811 17.411 17.411c0 5.522 4.478 10 10 10s10-4.478 10-10c0-17.111-11.551-31.564-27.261-36 1.366-39.196 12.077-77.422 31.241-111.617 5.825 3.235 12.521 5.085 19.643 5.085h7.406v56.27c0 76.094 61.906 138 138 138 19.281 0 37.938-3.902 55.456-11.598 5.056-2.222 7.354-8.121 5.133-13.178-2.223-5.058-8.124-7.355-13.178-5.133-14.965 6.575-30.917 9.909-47.411 9.909-65.065 0-118-52.935-118-118v-127.46c0-5.514 4.486-10 10-10h216c5.514 0 10 4.486 10 10v127.46c0 17.926-3.913 35.136-11.631 51.152-2.397 4.976-.308 10.952 4.668 13.35 4.975 2.398 10.953.308 13.35-4.668 9.033-18.747 13.613-38.878 13.613-59.834v-56.271h7.405c7.122 0 13.818-1.85 19.643-5.085 19.164 34.193 29.875 72.424 31.241 111.617-15.711 4.436-27.261 18.89-27.261 36 0 5.522 4.478 10 10 10s10-4.478 10-10c0-9.601 7.811-17.411 17.411-17.411s17.412 7.811 17.412 17.411c0 5.522 4.478 10 10 10s10-4.478 10-10c.001-17.218-11.695-31.747-27.557-36.084zm-361.699-126.448c-11.356 0-20.595-9.238-20.595-20.595s9.238-20.595 20.595-20.595h7.405v41.189h-7.405zm56.965-149.202v-40.087c0-48.766 39.673-88.44 88.44-88.44s88.44 39.674 88.44 88.44v40.087c0 15.148-12.324 27.473-27.473 27.473h-121.935c-15.148 0-27.472-12.324-27.472-27.473zm58.827 68.013v-20.54h59.227v20.54zm167.613 81.189v-41.189h7.405c11.356 0 20.595 9.238 20.595 20.595s-9.238 20.595-20.595 20.595h-7.405z"/><path d="m256 138.078c21.412 0 38.832-17.42 38.832-38.832s-17.42-38.832-38.832-38.832-38.832 17.42-38.832 38.832 17.42 38.832 38.832 38.832zm0-57.664c10.384 0 18.832 8.448 18.832 18.832s-8.448 18.832-18.832 18.832-18.832-8.448-18.832-18.832 8.448-18.832 18.832-18.832z"/><path d="m256 270.54c-51.684 0-93.73 42.047-93.73 93.729 0 51.684 42.047 93.73 93.73 93.73s93.73-42.047 93.73-93.73c0-51.682-42.046-93.729-93.73-93.729zm0 167.46c-40.655 0-73.73-33.075-73.73-73.73 0-40.654 33.075-73.729 73.73-73.729s73.73 33.075 73.73 73.729c0 40.655-33.075 73.73-73.73 73.73z"/><path d="m277.729 354.27h-26.425l13.429-24.065c2.691-4.823.963-10.914-3.859-13.605-4.823-2.69-10.915-.964-13.605 3.859l-21.728 38.938c-1.729 3.098-1.687 6.878.109 9.937 1.795 3.058 5.076 4.937 8.623 4.937h26.425l-13.43 24.066c-2.691 4.823-.963 10.914 3.859 13.605 1.543.86 3.215 1.27 4.864 1.27 3.507 0 6.911-1.849 8.741-5.129l21.729-38.939c1.729-3.098 1.687-6.878-.109-9.937-1.795-3.059-5.077-4.937-8.623-4.937z"/><circle cx="344.81" cy="466.177" r="10"/></g></g></svg>